<svg id="visual" viewBox="0 0 1400 300" width="1400" height="300" xmlns="http://www.w3.org/2000/svg" xmlns:xlink="http://www.w3.org/1999/xlink" version="1.1"><rect x="0" y="0" width="1400" height="300" fill="#140021"></rect><path d="M500 0L605 0L605 21L745 21L745 43L642 43L642 64L622 64L622 86L540 86L540 107L603 107L603 129L727 129L727 150L436 150L436 171L510 171L510 193L543 193L543 214L694 214L694 236L713 236L713 257L514 257L514 279L450 279L450 300L0 300L0 279L0 279L0 257L0 257L0 236L0 236L0 214L0 214L0 193L0 193L0 171L0 171L0 150L0 150L0 129L0 129L0 107L0 107L0 86L0 86L0 64L0 64L0 43L0 43L0 21L0 21L0 0L0 0Z" fill="#9900ff"></path><path d="M650 0L577 0L577 21L631 21L631 43L592 43L592 64L464 64L464 86L503 86L503 107L490 107L490 129L356 129L356 150L364 150L364 171L475 171L475 193L473 193L473 214L650 214L650 236L363 236L363 257L391 257L391 279L384 279L384 300L0 300L0 279L0 279L0 257L0 257L0 236L0 236L0 214L0 214L0 193L0 193L0 171L0 171L0 150L0 150L0 129L0 129L0 107L0 107L0 86L0 86L0 64L0 64L0 43L0 43L0 21L0 21L0 0L0 0Z" fill="#8b00e8"></path><path d="M346 0L314 0L314 21L306 21L306 43L432 43L432 64L392 64L392 86L517 86L517 107L507 107L507 129L368 129L368 150L471 150L471 171L380 171L380 193L447 193L447 214L464 214L464 236L347 236L347 257L310 257L310 279L290 279L290 300L0 300L0 279L0 279L0 257L0 257L0 236L0 236L0 214L0 214L0 193L0 193L0 171L0 171L0 150L0 150L0 129L0 129L0 107L0 107L0 86L0 86L0 64L0 64L0 43L0 43L0 21L0 21L0 0L0 0Z" fill="#7e00d1"></path><path d="M338 0L299 0L299 21L283 21L283 43L410 43L410 64L296 64L296 86L402 86L402 107L210 107L210 129L408 129L408 150L349 150L349 171L303 171L303 193L249 193L249 214L424 214L424 236L283 236L283 257L290 257L290 279L235 279L235 300L0 300L0 279L0 279L0 257L0 257L0 236L0 236L0 214L0 214L0 193L0 193L0 171L0 171L0 150L0 150L0 129L0 129L0 107L0 107L0 86L0 86L0 64L0 64L0 43L0 43L0 21L0 21L0 0L0 0Z" fill="#7000bb"></path><path d="M262 0L151 0L151 21L245 21L245 43L227 43L227 64L297 64L297 86L235 86L235 107L202 107L202 129L119 129L119 150L248 150L248 171L258 171L258 193L119 193L119 214L175 214L175 236L314 236L314 257L130 257L130 279L273 279L273 300L0 300L0 279L0 279L0 257L0 257L0 236L0 236L0 214L0 214L0 193L0 193L0 171L0 171L0 150L0 150L0 129L0 129L0 107L0 107L0 86L0 86L0 64L0 64L0 43L0 43L0 21L0 21L0 0L0 0Z" fill="#6300a5"></path><path d="M197 0L50 0L50 21L141 21L141 43L48 43L48 64L148 64L148 86L74 86L74 107L70 107L70 129L78 129L78 150L173 150L173 171L83 171L83 193L62 193L62 214L120 214L120 236L101 236L101 257L171 257L171 279L99 279L99 300L0 300L0 279L0 279L0 257L0 257L0 236L0 236L0 214L0 214L0 193L0 193L0 171L0 171L0 150L0 150L0 129L0 129L0 107L0 107L0 86L0 86L0 64L0 64L0 43L0 43L0 21L0 21L0 0L0 0Z" fill="#560090"></path></svg>